<svg xmlns="http://www.w3.org/2000/svg" xmlns:xlink="http://www.w3.org/1999/xlink" width="854" zoomAndPan="magnify" viewBox="0 0 640.5 197.999996" height="264" preserveAspectRatio="xMidYMid meet" version="1.0"><defs><clipPath id="08cce726ac"><path d="M 563.722656 36.839844 L 637.753906 36.839844 L 637.753906 110.910156 L 563.722656 110.910156 Z M 563.722656 36.839844 " clip-rule="nonzero"/></clipPath></defs><g clip-path="url(#08cce726ac)"><path fill="#059669" d="M 637.753906 36.839844 L 565.941406 36.839844 L 565.941406 59.117188 L 599.671875 59.117188 L 563.722656 95.070312 L 579.523438 110.867188 L 615.472656 74.917969 L 615.472656 108.648438 L 637.753906 108.648438 Z M 637.753906 36.839844 " fill-opacity="1" fill-rule="evenodd"/></g><path fill="#000000" d="M 23.59375 130.027344 L 49.304688 130.027344 L 49.304688 145.171875 L 3.972656 145.171875 L 3.972656 64.601562 L 23.59375 64.601562 Z M 23.59375 130.027344 " fill-opacity="1" fill-rule="nonzero"/><path fill="#000000" d="M 62.84375 74.472656 C 59.40625 74.472656 56.597656 73.460938 54.414062 71.433594 C 52.234375 69.40625 51.144531 66.898438 51.144531 63.917969 C 51.144531 60.859375 52.234375 58.316406 54.414062 56.289062 C 56.597656 54.257812 59.40625 53.242188 62.84375 53.242188 C 66.214844 53.242188 68.988281 54.257812 71.164062 56.289062 C 73.34375 58.316406 74.433594 60.859375 74.433594 63.917969 C 74.433594 66.898438 73.34375 69.40625 71.164062 71.433594 C 68.988281 73.460938 66.214844 74.472656 62.84375 74.472656 Z M 72.597656 81.132812 L 72.597656 145.171875 L 52.980469 145.171875 L 52.980469 81.132812 Z M 72.597656 81.132812 " fill-opacity="1" fill-rule="nonzero"/><path fill="#000000" d="M 120.121094 80.441406 C 127.617188 80.441406 133.605469 82.871094 138.078125 87.734375 C 142.554688 92.589844 144.796875 99.265625 144.796875 107.761719 L 144.796875 145.171875 L 125.285156 145.171875 L 125.285156 110.398438 C 125.285156 106.117188 124.175781 102.789062 121.957031 100.417969 C 119.738281 98.042969 116.75 96.855469 113.003906 96.855469 C 109.25 96.855469 106.269531 98.042969 104.046875 100.417969 C 101.828125 102.789062 100.71875 106.117188 100.71875 110.398438 L 100.71875 145.171875 L 81.097656 145.171875 L 81.097656 81.132812 L 100.71875 81.132812 L 100.71875 89.628906 C 102.707031 86.796875 105.386719 84.558594 108.753906 82.910156 C 112.121094 81.265625 115.910156 80.441406 120.121094 80.441406 Z M 120.121094 80.441406 " fill-opacity="1" fill-rule="nonzero"/><path fill="#000000" d="M 191.847656 145.171875 L 172.335938 118.316406 L 172.335938 145.171875 L 152.714844 145.171875 L 152.714844 60.246094 L 172.335938 60.246094 L 172.335938 107.1875 L 191.738281 81.132812 L 215.957031 81.132812 L 189.328125 113.269531 L 216.179688 145.171875 Z M 191.847656 145.171875 " fill-opacity="1" fill-rule="nonzero"/><path fill="#000000" d="M 318.214844 80.441406 C 326.167969 80.441406 332.5 82.851562 337.207031 87.675781 C 341.914062 92.496094 344.269531 99.1875 344.269531 107.761719 L 344.269531 145.171875 L 324.757812 145.171875 L 324.757812 110.398438 C 324.757812 106.265625 323.664062 103.070312 321.484375 100.820312 C 319.304688 98.5625 316.300781 97.429688 312.472656 97.429688 C 308.652344 97.429688 305.648438 98.5625 303.46875 100.820312 C 301.285156 103.070312 300.199219 106.265625 300.199219 110.398438 L 300.199219 145.171875 L 280.6875 145.171875 L 280.6875 110.398438 C 280.6875 106.265625 279.59375 103.070312 277.414062 100.820312 C 275.234375 98.5625 272.230469 97.429688 268.402344 97.429688 C 264.574219 97.429688 261.570312 98.5625 259.390625 100.820312 C 257.207031 103.070312 256.117188 106.265625 256.117188 110.398438 L 256.117188 145.171875 L 236.5 145.171875 L 236.5 81.132812 L 256.117188 81.132812 L 256.117188 89.167969 C 258.109375 86.488281 260.710938 84.363281 263.921875 82.792969 C 267.136719 81.222656 270.773438 80.441406 274.828125 80.441406 C 279.652344 80.441406 283.953125 81.476562 287.738281 83.542969 C 291.527344 85.609375 294.492188 88.554688 296.632812 92.382812 C 298.855469 88.859375 301.875 85.988281 305.695312 83.769531 C 309.523438 81.550781 313.695312 80.441406 318.214844 80.441406 Z M 318.214844 80.441406 " fill-opacity="1" fill-rule="nonzero"/><path fill="#000000" d="M 348.398438 113.035156 C 348.398438 106.457031 349.640625 100.679688 352.128906 95.710938 C 354.617188 90.738281 358 86.914062 362.285156 84.238281 C 366.566406 81.554688 371.347656 80.214844 376.628906 80.214844 C 381.148438 80.214844 385.109375 81.132812 388.511719 82.96875 C 391.917969 84.804688 394.539062 87.214844 396.375 90.195312 L 396.375 81.132812 L 416 81.132812 L 416 145.171875 L 396.375 145.171875 L 396.375 136.109375 C 394.457031 139.09375 391.800781 141.5 388.394531 143.335938 C 384.992188 145.171875 381.03125 146.089844 376.519531 146.089844 C 371.3125 146.089844 366.566406 144.734375 362.285156 142.019531 C 358 139.304688 354.617188 135.441406 352.128906 130.425781 C 349.640625 125.414062 348.398438 119.617188 348.398438 113.035156 Z M 396.375 113.152344 C 396.375 108.257812 395.015625 104.394531 392.292969 101.5625 C 389.578125 98.730469 386.269531 97.3125 382.371094 97.3125 C 378.46875 97.3125 375.160156 98.710938 372.441406 101.503906 C 369.722656 104.296875 368.367188 108.140625 368.367188 113.035156 C 368.367188 117.933594 369.722656 121.816406 372.441406 124.683594 C 375.160156 127.554688 378.46875 128.992188 382.371094 128.992188 C 386.269531 128.992188 389.578125 127.578125 392.292969 124.742188 C 395.015625 121.914062 396.375 118.050781 396.375 113.152344 Z M 396.375 113.152344 " fill-opacity="1" fill-rule="nonzero"/><path fill="#000000" d="M 463.625 145.171875 L 444.113281 118.316406 L 444.113281 145.171875 L 424.496094 145.171875 L 424.496094 60.246094 L 444.113281 60.246094 L 444.113281 107.1875 L 463.515625 81.132812 L 487.734375 81.132812 L 461.105469 113.269531 L 487.960938 145.171875 Z M 463.625 145.171875 " fill-opacity="1" fill-rule="nonzero"/><path fill="#000000" d="M 550.054688 112.117188 C 550.054688 113.953125 549.9375 115.867188 549.710938 117.859375 L 505.289062 117.859375 C 505.59375 121.835938 506.878906 124.878906 509.136719 126.980469 C 511.394531 129.082031 514.167969 130.132812 517.457031 130.132812 C 522.351562 130.132812 525.757812 128.070312 527.671875 123.941406 L 548.558594 123.941406 C 547.484375 128.148438 545.550781 131.933594 542.757812 135.300781 C 539.964844 138.667969 536.46875 141.304688 532.261719 143.21875 C 528.054688 145.136719 523.347656 146.089844 518.140625 146.089844 C 511.871094 146.089844 506.285156 144.753906 501.386719 142.078125 C 496.488281 139.394531 492.664062 135.566406 489.910156 130.59375 C 487.15625 125.621094 485.78125 119.808594 485.78125 113.152344 C 485.78125 106.492188 487.136719 100.679688 489.851562 95.710938 C 492.574219 90.738281 496.378906 86.914062 501.277344 84.238281 C 506.171875 81.554688 511.792969 80.214844 518.140625 80.214844 C 524.339844 80.214844 529.847656 81.515625 534.664062 84.121094 C 539.488281 86.71875 543.257812 90.429688 545.972656 95.253906 C 548.691406 100.070312 550.054688 105.691406 550.054688 112.117188 Z M 529.964844 106.953125 C 529.964844 103.585938 528.816406 100.910156 526.519531 98.925781 C 524.226562 96.933594 521.359375 95.9375 517.917969 95.9375 C 514.628906 95.9375 511.855469 96.894531 509.597656 98.808594 C 507.335938 100.722656 505.941406 103.4375 505.40625 106.953125 Z M 529.964844 106.953125 " fill-opacity="1" fill-rule="nonzero"/><path fill="#000000" d="M 563.824219 146.089844 C 560.382812 146.089844 557.570312 145.078125 555.386719 143.050781 C 553.207031 141.023438 552.117188 138.515625 552.117188 135.535156 C 552.117188 132.476562 553.207031 129.914062 555.386719 127.847656 C 557.570312 125.777344 560.382812 124.742188 563.824219 124.742188 C 567.191406 124.742188 569.964844 125.777344 572.144531 127.847656 C 574.324219 129.914062 575.417969 132.476562 575.417969 135.535156 C 575.417969 138.515625 574.324219 141.023438 572.144531 143.050781 C 569.964844 145.078125 567.191406 146.089844 563.824219 146.089844 Z M 563.824219 146.089844 " fill-opacity="1" fill-rule="nonzero"/></svg>